<svg xmlns="http://www.w3.org/2000/svg" xmlns:xlink="http://www.w3.org/1999/xlink" viewBox="0 0 1440 407.999985" preserveAspectRatio="xMidYMid meet" version="1.0">
  <defs>
    <!-- Animated gold shimmer — same sweep used on snake and site titles -->
    <linearGradient id="logoGrad" gradientUnits="userSpaceOnUse" x1="0" y1="204" x2="1440" y2="204">
      <stop offset="0%"   stop-color="#C9A84C"/>
      <stop offset="35%"  stop-color="#F5E6C8"/>
      <stop offset="65%"  stop-color="#E8C97A"/>
      <stop offset="100%" stop-color="#C9A84C"/>
      <animateTransform attributeName="gradientTransform" type="translate" values="-1440 0; 1440 0" dur="4s" repeatCount="indefinite"/>
    </linearGradient>
    <g/>
    <clipPath id="18b5802bc0">
      <path d="M 0.0117188 10.488281 L 1440 10.488281 L 1440 407.988281 L 0.0117188 407.988281 Z M 0.0117188 10.488281 " clip-rule="nonzero"/>
    </clipPath>
    <clipPath id="85b3f23acd">
      <path d="M 75.011719 10.488281 L 1364.988281 10.488281 C 1384.878906 10.488281 1403.957031 18.390625 1418.023438 32.453125 C 1432.085938 46.519531 1439.988281 65.59375 1439.988281 85.488281 L 1439.988281 332.941406 C 1439.988281 352.832031 1432.085938 371.910156 1418.023438 385.972656 C 1403.957031 400.039062 1384.878906 407.941406 1364.988281 407.941406 L 75.011719 407.941406 C 55.121094 407.941406 36.042969 400.039062 21.976562 385.972656 C 7.914062 371.910156 0.0117188 352.832031 0.0117188 332.941406 L 0.0117188 85.488281 C 0.0117188 65.59375 7.914062 46.519531 21.976562 32.453125 C 36.042969 18.390625 55.121094 10.488281 75.011719 10.488281 Z M 75.011719 10.488281 " clip-rule="nonzero"/>
    </clipPath>
    <clipPath id="951eab3fcd">
      <rect x="0" width="1267" y="0" height="277"/>
    </clipPath>
  </defs>

  <!-- Border -->
  <g clip-path="url(#18b5802bc0)">
    <g clip-path="url(#85b3f23acd)">
      <path stroke-linecap="butt" transform="matrix(0.75, 0, 0, 0.75, 0.0000264697, 10.487679)" fill="none" stroke-linejoin="miter" d="M 100.015591 0.000802977 L 1819.984366 0.000802977 C 1846.5052 0.000802977 1871.9427 10.537261 1890.697909 29.287262 C 1909.447909 48.04247 1919.984367 73.474762 1919.984367 100.000804 L 1919.984367 429.938309 C 1919.984367 456.459143 1909.447909 481.896643 1890.697909 500.646644 C 1871.9427 519.401852 1846.5052 529.938311 1819.984366 529.938311 L 100.015591 529.938311 C 73.494757 529.938311 48.057257 519.401852 29.302048 500.646644 C 10.552048 481.896643 0.0155897 456.459143 0.0155897 429.938309 L 0.0155897 100.000804 C 0.0155897 73.474762 10.552048 48.04247 29.302048 29.287262 C 48.057257 10.537261 73.494757 0.000802977 100.015591 0.000802977 Z M 100.015591 0.000802977 " stroke="url(#logoGrad)" stroke-width="64" stroke-opacity="1" stroke-miterlimit="4"/>
    </g>
  </g>

  <!-- Text letterforms -->
  <g transform="matrix(1, 0, 0, 1, 83, 66)">
    <g clip-path="url(#951eab3fcd)">
      <g fill="url(#logoGrad)" fill-opacity="1">
        <g transform="translate(0.731463, 221.269172)"><g><path d="M 18.59375 -172.921875 L 74.140625 -172.921875 L 74.140625 -44.234375 L 162.875 -44.234375 L 162.875 0 L 18.59375 0 Z M 18.59375 -172.921875 "/></g></g>
      </g>
      <g fill="url(#logoGrad)" fill-opacity="1">
        <g transform="translate(156.308022, 221.269172)"><g><path d="M 83.703125 -135.71875 C 107.992188 -135.71875 126.546875 -130.019531 139.359375 -118.625 C 152.179688 -107.238281 158.59375 -89.816406 158.59375 -66.359375 L 158.59375 -57.8125 L 59.0625 -57.8125 C 59.0625 -48.257812 61.195312 -41.050781 65.46875 -36.1875 C 69.75 -31.332031 76.492188 -28.90625 85.703125 -28.90625 C 94.085938 -28.90625 100.25 -30.664062 104.1875 -34.1875 C 108.125 -37.707031 110.09375 -42.398438 110.09375 -48.265625 L 158.59375 -48.265625 C 158.59375 -32.171875 152.476562 -19.597656 140.25 -10.546875 C 128.019531 -1.503906 110.175781 3.015625 86.71875 3.015625 C 62.082031 3.015625 42.976562 -2.722656 29.40625 -14.203125 C 15.832031 -25.679688 9.046875 -43.066406 9.046875 -66.359375 C 9.046875 -89.140625 15.664062 -106.394531 28.90625 -118.125 C 42.144531 -129.851562 60.410156 -135.71875 83.703125 -135.71875 Z M 85.703125 -103.8125 C 69.953125 -103.8125 61.15625 -96.351562 59.3125 -81.4375 L 108.078125 -81.4375 C 108.078125 -88.300781 106.109375 -93.742188 102.171875 -97.765625 C 98.234375 -101.796875 92.742188 -103.8125 85.703125 -103.8125 Z M 85.703125 -103.8125 "/></g></g>
      </g>
      <g fill="url(#logoGrad)" fill-opacity="1">
        <g transform="translate(318.167998, 221.269172)"><g><path d="M 164.375 -157.59375 C 164.375 -147.375 161.816406 -139.5 156.703125 -133.96875 C 151.597656 -128.4375 143.9375 -124.332031 133.71875 -121.65625 C 138.570312 -117.96875 142.378906 -113.648438 145.140625 -108.703125 C 147.910156 -103.765625 149.296875 -98.53125 149.296875 -93 C 149.296875 -78.925781 143.972656 -68.285156 133.328125 -61.078125 C 122.691406 -53.867188 109.414062 -50.265625 93.5 -50.265625 L 74.390625 -50.265625 C 63.835938 -50.265625 58.5625 -47.835938 58.5625 -42.984375 C 58.5625 -40.640625 59.734375 -38.753906 62.078125 -37.328125 C 64.421875 -35.898438 68.523438 -35.1875 74.390625 -35.1875 L 119.640625 -35.1875 C 134.390625 -35.1875 145.53125 -31.332031 153.0625 -23.625 C 160.601562 -15.914062 164.375 -5.613281 164.375 7.28125 C 164.375 16.832031 161.859375 25.039062 156.828125 31.90625 C 151.804688 38.78125 145.019531 43.976562 136.46875 47.5 C 127.925781 51.019531 118.628906 52.78125 108.578125 52.78125 L 34.6875 52.78125 C 28.65625 52.78125 23.082031 51.351562 17.96875 48.5 C 12.863281 45.65625 8.800781 41.757812 5.78125 36.8125 C 2.757812 31.875 1.25 26.390625 1.25 20.359375 C 1.25 13.828125 3.257812 7.921875 7.28125 2.640625 C 11.3125 -2.640625 16.34375 -6.617188 22.375 -9.296875 C 18.351562 -12.148438 15.164062 -15.585938 12.8125 -19.609375 C 10.46875 -23.628906 9.296875 -27.984375 9.296875 -32.671875 C 9.296875 -39.210938 11.722656 -45.117188 16.578125 -50.390625 C 21.441406 -55.671875 27.476562 -59.234375 34.6875 -61.078125 C 28.15625 -65.265625 22.960938 -70.082031 19.109375 -75.53125 C 15.253906 -80.976562 13.328125 -86.71875 13.328125 -92.75 C 13.328125 -108.164062 19.566406 -119.179688 32.046875 -125.796875 C 44.523438 -132.410156 61.070312 -135.71875 81.6875 -135.71875 C 90.738281 -135.71875 98.023438 -135.21875 103.546875 -134.21875 C 111.765625 -139.414062 117.085938 -144.148438 119.515625 -148.421875 C 121.941406 -152.691406 123.15625 -155.75 123.15625 -157.59375 Z M 81.1875 -109.578125 C 75.65625 -109.578125 71.128906 -108.15625 67.609375 -105.3125 C 64.085938 -102.46875 62.328125 -98.363281 62.328125 -93 C 62.328125 -87.46875 63.960938 -83.316406 67.234375 -80.546875 C 70.503906 -77.785156 75.15625 -76.40625 81.1875 -76.40625 C 87.21875 -76.40625 91.945312 -77.785156 95.375 -80.546875 C 98.8125 -83.316406 100.53125 -87.46875 100.53125 -93 C 100.53125 -98.53125 98.8125 -102.675781 95.375 -105.4375 C 91.945312 -108.195312 87.21875 -109.578125 81.1875 -109.578125 Z M 61.828125 0 C 57.972656 0 54.832031 1.046875 52.40625 3.140625 C 49.976562 5.234375 48.765625 8.207031 48.765625 12.0625 C 48.765625 15.914062 50.019531 19.015625 52.53125 21.359375 C 55.039062 23.710938 58.140625 24.890625 61.828125 24.890625 L 101.046875 24.890625 C 104.722656 24.890625 107.859375 23.753906 110.453125 21.484375 C 113.054688 19.222656 114.359375 16.164062 114.359375 12.3125 C 114.359375 8.457031 113.101562 5.441406 110.59375 3.265625 C 108.082031 1.085938 104.898438 0 101.046875 0 Z M 61.828125 0 "/></g></g>
      </g>
      <g fill="url(#logoGrad)" fill-opacity="1">
        <g transform="translate(473.744557, 221.269172)"><g><path d="M 80.6875 -135.71875 C 100.957031 -135.71875 117.457031 -132.320312 130.1875 -125.53125 C 142.925781 -118.75 149.296875 -107.738281 149.296875 -92.5 L 149.296875 -40.71875 C 149.296875 -37.863281 149.960938 -35.515625 151.296875 -33.671875 C 152.640625 -31.835938 154.65625 -30.921875 157.34375 -30.921875 L 166.390625 -30.921875 L 166.390625 -2.015625 C 165.890625 -1.679688 164.59375 -1.132812 162.5 -0.375 C 160.40625 0.375 157.429688 1.125 153.578125 1.875 C 149.722656 2.632812 145.28125 3.015625 140.25 3.015625 C 130.53125 3.015625 122.53125 1.550781 116.25 -1.375 C 109.96875 -4.3125 105.648438 -8.378906 103.296875 -13.578125 C 96.929688 -8.546875 89.8125 -4.519531 81.9375 -1.5 C 74.0625 1.507812 64.847656 3.015625 54.296875 3.015625 C 23.128906 3.015625 7.546875 -9.382812 7.546875 -34.1875 C 7.546875 -47.082031 11.019531 -56.921875 17.96875 -63.703125 C 24.925781 -70.492188 34.9375 -75.144531 48 -77.65625 C 61.070312 -80.175781 78.164062 -81.4375 99.28125 -81.4375 L 99.28125 -87.96875 C 99.28125 -93.164062 97.476562 -97.101562 93.875 -99.78125 C 90.269531 -102.46875 85.617188 -103.8125 79.921875 -103.8125 C 74.734375 -103.8125 70.253906 -102.890625 66.484375 -101.046875 C 62.710938 -99.203125 60.828125 -96.269531 60.828125 -92.25 L 60.828125 -91.234375 L 11.5625 -91.234375 C 11.394531 -92.078125 11.3125 -93.25 11.3125 -94.75 C 11.3125 -107.320312 17.300781 -117.289062 29.28125 -124.65625 C 41.257812 -132.03125 58.394531 -135.71875 80.6875 -135.71875 Z M 99.28125 -57.8125 C 85.039062 -57.8125 74.523438 -56.257812 67.734375 -53.15625 C 60.953125 -50.0625 57.5625 -45.914062 57.5625 -40.71875 C 57.5625 -32.34375 63.257812 -28.15625 74.65625 -28.15625 C 81.1875 -28.15625 86.921875 -29.910156 91.859375 -33.421875 C 96.804688 -36.941406 99.28125 -41.300781 99.28125 -46.5 Z M 99.28125 -57.8125 "/></g></g>
      </g>
      <g fill="url(#logoGrad)" fill-opacity="1">
        <g transform="translate(629.321116, 221.269172)"><g><path d="M 83.703125 -135.71875 C 105.484375 -135.71875 123.117188 -131.066406 136.609375 -121.765625 C 150.097656 -112.472656 156.84375 -98.273438 156.84375 -79.171875 L 108.328125 -79.171875 C 108.328125 -94.253906 100.117188 -101.796875 83.703125 -101.796875 C 67.273438 -101.796875 59.0625 -92.328125 59.0625 -73.390625 L 59.0625 -59.0625 C 59.0625 -40.300781 67.609375 -30.921875 84.703125 -30.921875 C 101.796875 -30.921875 110.34375 -38.625 110.34375 -54.03125 L 156.84375 -54.03125 C 156.84375 -34.769531 150.097656 -20.445312 136.609375 -11.0625 C 123.117188 -1.675781 105.484375 3.015625 83.703125 3.015625 C 60.410156 3.015625 42.144531 -2.847656 28.90625 -14.578125 C 15.664062 -26.304688 9.046875 -43.566406 9.046875 -66.359375 C 9.046875 -89.140625 15.664062 -106.394531 28.90625 -118.125 C 42.144531 -129.851562 60.410156 -135.71875 83.703125 -135.71875 Z M 83.703125 -135.71875 "/></g></g>
      </g>
      <g fill="url(#logoGrad)" fill-opacity="1">
        <g transform="translate(780.62493, 221.269172)"><g><path d="M 106.3125 -4.015625 C 99.445312 14.578125 91.03125 28.691406 81.0625 38.328125 C 71.09375 47.960938 57.140625 52.78125 39.203125 52.78125 C 28.316406 52.78125 18.6875 51.273438 10.3125 48.265625 L 10.3125 18.34375 L 30.40625 18.34375 C 42.976562 18.34375 50.4375 12.226562 52.78125 0 L 0 -132.703125 L 53.78125 -132.703125 L 79.171875 -44.484375 L 80.9375 -44.484375 L 104.3125 -132.703125 L 153.578125 -132.703125 Z M 106.3125 -4.015625 "/></g></g>
      </g>
      <g fill="url(#logoGrad)" fill-opacity="1">
        <g transform="translate(922.126684, 221.269172)"><g><path d="M 101.046875 -175.9375 C 126.679688 -175.9375 146.953125 -169.523438 161.859375 -156.703125 C 176.773438 -143.890625 184.234375 -125.585938 184.234375 -101.796875 L 131.203125 -101.796875 C 131.203125 -111.847656 128.5625 -119.804688 123.28125 -125.671875 C 118 -131.535156 110.5 -134.46875 100.78125 -134.46875 C 89.5625 -134.46875 81.3125 -130.945312 76.03125 -123.90625 C 70.75 -116.875 68.109375 -107.070312 68.109375 -94.5 L 68.109375 -78.421875 C 68.109375 -66.015625 70.75 -56.25 76.03125 -49.125 C 81.3125 -42.007812 89.394531 -38.453125 100.28125 -38.453125 C 111.007812 -38.453125 119.132812 -41.21875 124.65625 -46.75 C 130.1875 -52.28125 132.953125 -60.070312 132.953125 -70.125 L 184.234375 -70.125 C 184.234375 -46.5 176.984375 -28.398438 162.484375 -15.828125 C 147.992188 -3.265625 127.515625 3.015625 101.046875 3.015625 C 71.546875 3.015625 49.210938 -4.519531 34.046875 -19.59375 C 18.890625 -34.675781 11.3125 -56.96875 11.3125 -86.46875 C 11.3125 -115.957031 18.890625 -138.238281 34.046875 -153.3125 C 49.210938 -168.394531 71.546875 -175.9375 101.046875 -175.9375 Z M 101.046875 -175.9375 "/></g></g>
      </g>
      <g fill="url(#logoGrad)" fill-opacity="1">
        <g transform="translate(1105.601466, 221.269172)"><g><path d="M 83.703125 -135.71875 C 106.992188 -135.71875 125.296875 -129.8125 138.609375 -118 C 151.929688 -106.1875 158.59375 -88.972656 158.59375 -66.359375 C 158.59375 -43.734375 151.929688 -26.515625 138.609375 -14.703125 C 125.296875 -2.890625 106.992188 3.015625 83.703125 3.015625 C 60.410156 3.015625 42.144531 -2.847656 28.90625 -14.578125 C 15.664062 -26.304688 9.046875 -43.566406 9.046875 -66.359375 C 9.046875 -89.140625 15.664062 -106.394531 28.90625 -118.125 C 42.144531 -129.851562 60.410156 -135.71875 83.703125 -135.71875 Z M 83.703125 -101.796875 C 67.273438 -101.796875 59.0625 -92.328125 59.0625 -73.390625 L 59.0625 -59.0625 C 59.0625 -40.300781 67.273438 -30.921875 83.703125 -30.921875 C 100.285156 -30.921875 108.578125 -40.300781 108.578125 -59.0625 L 108.578125 -73.390625 C 108.578125 -92.328125 100.285156 -101.796875 83.703125 -101.796875 Z M 83.703125 -101.796875 "/></g></g>
      </g>
    </g>
  </g>
</svg>
